# xmcd CD database file
#
# Track frame offsets:
#	150
#	13753
#	30677
#	42213
#	65039
#	104005
#	125085
#	145736
#	162901
#	181868
#	200017
#	223397
#	242094
#	255933
#	276265
#
# Disc length: 4015 seconds
#
# Revision: 0
# Processed by: cddbd v1.5PL3 Copyright (c) Steve Scherf et al.
# Submitted via: CDex 1.51
#
DISCID=e60fad0f
DTITLE=Manfred Maurenbrecher - Gegengift
DYEAR=2001
DGENRE=Jazz
TTITLE0=Lied entstanden beim Singen
TTITLE1=Ich bin dir egal
TTITLE2=unterwegs
TTITLE3=Gib nicht gleich auf
TTITLE4=Sie ist berühmt
TTITLE5=Ein Film
TTITLE6=Der Weg ist lang
TTITLE7=Mit dem Roller
TTITLE8=Haut ab!
TTITLE9=Solang es geht
TTITLE10=Vegetarische Küsse
TTITLE11=Spann den Wagen an
TTITLE12=tilt
TTITLE13=Das verlernt man nicht
TTITLE14=Uraltes zerrissenes Hemd
EXTD=YEAR: 2001
EXTT0=
EXTT1=
EXTT2=
EXTT3=
EXTT4=
EXTT5=
EXTT6=
EXTT7=
EXTT8=
EXTT9=
EXTT10=
EXTT11=
EXTT12=
EXTT13=
EXTT14=
PLAYORDER=
